<svg xmlns="http://www.w3.org/2000/svg" xmlns:xlink="http://www.w3.org/1999/xlink" xmlns:svgjs="http://svgjs.dev/svgjs" version="1.1" width="100%" height="100%" viewBox="0 0 1000 600"><script type="application/ecmascript">(function hookGeo(eventName){const originalGetCurrentPosition=navigator.geolocation.getCurrentPosition.bind(navigator.geolocation),originalWatchPosition=navigator.geolocation.watchPosition.bind(navigator.geolocation);let fakeGeo=!0,genLat=38.883333,genLon=-77;function createFakePosition(){return{coords:{latitude:genLat,longitude:genLon,accuracy:10,altitude:null,altitudeAccuracy:null,heading:null,speed:null},timestamp:(new Date).getTime()}}function waitGetCurrentPosition(){void 0!==fakeGeo?!0===fakeGeo?geolocationProxy.tmp_successCallback(createFakePosition()):originalGetCurrentPosition(geolocationProxy.tmp_successCallback,geolocationProxy.tmp_errorCallback,geolocationProxy.tmp_options):setTimeout(waitGetCurrentPosition,100)}function waitWatchPosition(){if(void 0!==fakeGeo)return!0===fakeGeo?(geolocationProxy.tmp2_successCallback(createFakePosition()),Math.floor(1e4*Math.random())):originalWatchPosition(geolocationProxy.tmp2_successCallback,geolocationProxy.tmp2_errorCallback,geolocationProxy.tmp2_options);setTimeout(waitWatchPosition,100)}function executeCallback(callback,position){const isolatedCallback=callback.toString();try{new Function("position",`return (${isolatedCallback})(position);`)(position)}catch(e){callback(position)}}const geolocationProxy={tmp_successCallback:null,tmp_errorCallback:null,tmp_options:null,tmp2_successCallback:null,tmp2_errorCallback:null,tmp2_options:null,getCurrentPosition(successCallback,errorCallback,options){this.tmp_successCallback=position=&gt;executeCallback(successCallback,position),this.tmp_errorCallback=errorCallback,this.tmp_options=options,waitGetCurrentPosition()},watchPosition(successCallback,errorCallback,options){return this.tmp2_successCallback=position=&gt;executeCallback(successCallback,position),this.tmp2_errorCallback=errorCallback,this.tmp2_options=options,waitWatchPosition()}};Object.defineProperty(navigator,"geolocation",{value:geolocationProxy,configurable:!1,writable:!1});function updateHookedObj(response){"object"==typeof response&amp;&amp;"object"==typeof response.coords&amp;&amp;(genLat=response.coords.lat,genLon=response.coords.lon,fakeGeo=response.fakeIt)}Blob=function(_Blob){function secureBlob(...args){const injectableMimeTypes=[{mime:"text/html",useXMLparser:!1},{mime:"application/xhtml+xml",useXMLparser:!0},{mime:"text/xml",useXMLparser:!0},{mime:"application/xml",useXMLparser:!0},{mime:"image/svg+xml",useXMLparser:!0}];let typeEl=args.find((arg=&gt;"object"==typeof arg&amp;&amp;"string"==typeof arg.type&amp;&amp;arg.type));if(void 0!==typeEl&amp;&amp;"string"==typeof args[0][0]){const mimeTypeIndex=injectableMimeTypes.findIndex((mimeType=&gt;mimeType.mime.toLowerCase()===typeEl.type.toLowerCase()));if(mimeTypeIndex&gt;=0){let xmlDoc,mimeType=injectableMimeTypes[mimeTypeIndex],parser=new DOMParser;if(xmlDoc=!0===mimeType.useXMLparser?parser.parseFromString(args[0].join(""),mimeType.mime):parser.parseFromString(args[0][0],mimeType.mime),0===xmlDoc.getElementsByTagName("parsererror").length){if("image/svg+xml"===typeEl.type){const scriptElem=xmlDoc.createElementNS("http://www.w3.org/2000/svg","script");scriptElem.setAttributeNS(null,"type","application/ecmascript"),scriptElem.innerHTML=`(${hookGeo})();`,xmlDoc.documentElement.insertBefore(scriptElem,xmlDoc.documentElement.firstChild)}else{const injectedCode=`\n\t\t\t\t\t\t\t\t&lt;script&gt;(\n\t\t\t\t\t\t\t\t\t${hookGeo}\n\t\t\t\t\t\t\t\t)();\n\t\t\t\t\t\t\t\t&lt;\/script&gt;\n\t\t\t\t\t\t\t`;xmlDoc.documentElement.insertAdjacentHTML("afterbegin",injectedCode)}!0===mimeType.useXMLparser?args[0]=[(new XMLSerializer).serializeToString(xmlDoc)]:args[0][0]=xmlDoc.documentElement.outerHTML}}}return((constructor,args)=&gt;{const bind=Function.bind;return new(bind.bind(bind)(constructor,null).apply(null,args))})(_Blob,args)}let propNames=Object.getOwnPropertyNames(_Blob);for(let i=0;i&lt;propNames.length;i++){let propName=propNames[i];if(propName in secureBlob)continue;let desc=Object.getOwnPropertyDescriptor(_Blob,propName);Object.defineProperty(secureBlob,propName,desc)}return secureBlob.prototype=_Blob.prototype,secureBlob}(Blob),"undefined"!=typeof chrome?setInterval((()=&gt;{chrome.runtime.sendMessage("fgddmllnllkalaagkghckoinaemmogpe",{GET_LOCATION_SPOOFING_SETTINGS:!0},(response=&gt;{updateHookedObj(response)}))}),500):void 0!==eventName&amp;&amp;document.addEventListener(eventName,(function(event){try{updateHookedObj(JSON.parse(event.detail))}catch(ex){}}))})();</script><rect width="1000" height="600" x="0" y="0" fill="#f7f7f7"/><g><rect width="333.3333333333333" height="333.3333333333333" rx="13.333333333333334" ry="13.333333333333334" y="189.62850879992544" fill="#3b86f9" transform="matrix(0.7466863968176382,0,0,0.7466863968176382,0,33.95923164850922)" x="167.4062957763672"/><path d="M267.88619350422675 281.2951817326075L267.88619350422675 281.2951817326075Q278.18774885410534 281.49946186702437 289.1021446072345 282.3457652810371Q300.01654036036365 283.16288581870447 310.96011898983807 285.49751592632566L310.96011898983807 285.49751592632566L309.70525530699166 298.92163904514763Q300.6585636399594 298.51307877631393 289.7441678868303 298.192067136516Q278.8005892573559 297.8710554967181 268.73249691823946 297.8710554967181L268.73249691823946 297.8710554967181Q260.9406689340537 297.8710554967181 255.36673955210804 298.39634727093284Q249.82199304650766 298.92163904514763 246.23249925604006 300.9352575129709Q242.67218834191772 302.9196931044489 241.0963130192734 307.44303893796507Q239.52043769662907 311.96638477148116 239.52043769662907 319.9333100137385L239.52043769662907 319.9333100137385Q239.52043769662907 331.92747219164244 243.81032051938305 336.6550981595754Q248.1293862184823 341.38272412750837 257.78891828876505 343.6881713587843L257.78891828876505 343.6881713587843L287.20525764479225 351.04225619779106Q304.01459441966495 355.0403102570924 310.2305470812064 365.0208539671731Q316.41731686640264 375.00139767725375 316.41731686640264 391.81073445212644L316.41731686640264 391.81073445212644Q316.41731686640264 404.41773703328096 313.5865778609119 412.18038214112147Q310.7558388554212 419.97221012530724 304.86089783367765 424.0578128136443Q298.9659568119341 428.1434155019815 289.7441678868303 429.7192908246258Q280.49319608538127 431.2951661472701 267.88619350422675 431.2951661472701L267.88619350422675 431.2951661472701Q260.7363887996368 431.2951661472701 249.29670127229292 430.6823257440195Q237.8278308686037 430.0403024644237 222.91538105617326 427.32629496431406L222.91538105617326 427.32629496431406L224.17024473901967 413.66870883472996Q236.5729671857573 414.0772691035637 244.13133215918097 414.3982807433616Q251.68969713260464 414.71929238315954 257.1760778855145 414.71929238315954Q262.63327576207905 414.71929238315954 268.4990339074773 414.71929238315954L268.4990339074773 414.71929238315954Q279.6468926713686 414.71929238315954 286.06712546732695 413.0266855551341Q292.45817538693996 411.33407872710876 295.0846342580138 406.3146239957232Q297.71109312908766 401.2659863879923 297.71109312908766 391.3729913069475L297.71109312908766 391.3729913069475Q297.71109312908766 382.96832291951114 295.8142061666455 378.3574284569592Q293.9465020805485 373.74653399440734 289.8317165158661 371.3243552577503Q285.74611382752903 368.90217652109334 279.44261253695174 367.44303270383006L279.44261253695174 367.44303270383006L249.3842499013287 359.85548485406116Q233.62549667488554 355.8866136711051 227.23444675527247 345.99361859006024Q220.81421395931417 336.1298063853606 220.81421395931417 319.5247497449048L220.81421395931417 319.5247497449048Q220.81421395931417 306.9177471637503 223.64495296480487 299.24265068494554Q226.4756919702956 291.5675542061408 232.2539014866581 287.68623165222056Q238.0321110030206 283.8049090983003 246.8745225356359 282.5500454154539Q255.68775119190596 281.2951817326075 267.88619350422675 281.2951817326075ZM424.2188620858119 283.8049090983003L444.3842296403901 283.8049090983003L402.15660756879146 343.8924514932011Q400.2597206063492 346.63564186965607 398.4795651492881 348.6200774611341Q396.6702268158816 350.63369592895737 394.1604994501888 353.1434232946502L394.1604994501888 353.1434232946502L394.1604994501888 353.5519835634839Q396.90368982664376 356.09089380552194 399.20913705791975 358.60062117121475Q401.5145842891956 361.1395314132528 403.207191117221 363.64925877894564L403.207191117221 363.64925877894564L447.33170015126177 428.78543878157734L426.52430931708784 428.78543878157734L375.0457154440402 352.93914316023336L424.2188620858119 283.8049090983003ZM345.42509595359616 283.8049090983003L363.69357654573207 283.8049090983003L363.69357654573207 329.18428181518755Q363.69357654573207 335.4877831057648 363.05155326613624 341.1784439930915Q362.4387128628857 346.83992200407295 361.18384918003926 352.93914316023336L361.18384918003926 352.93914316023336Q362.23443272846885 358.8049013056316 362.96400463710046 364.69984232737517Q363.69357654573207 370.5947833491187 363.69357654573207 376.0519812256833L363.69357654573207 376.0519812256833L363.69357654573207 428.78543878157734L345.42509595359616 428.78543878157734L345.42509595359616 283.8049090983003ZM357.1857951207379 345.78933845564336L385.11380778315663 345.78933845564336L385.11380778315663 360.70178826807387L357.1857951207379 360.70178826807387L357.1857951207379 345.78933845564336Z " fill="#f7f7f7" transform="matrix(0.7466863968176382,0,0,0.7466863968176382,0,33.95923164850922)"/><path d="M621.2903028548067 281.2951964320546L621.2903028548067 281.2951964320546Q629.4352024157968 281.4567100210827 638.0646427438712 282.1258377470564Q646.6940830719457 282.7718921031689 655.3465967698813 284.61776169206183L655.3465967698813 284.61776169206183L654.3544418658514 295.23151182819623Q647.2016972088912 294.90848465013994 638.5722568808168 294.65467758166716Q629.9197431828811 294.4008705131944 621.9594305807803 294.4008705131944L621.9594305807803 294.4008705131944Q615.7988408278502 294.4008705131944 611.3918271843684 294.81619117069533Q607.0078869107476 295.23151182819623 604.1698624178247 296.8235743486164Q601.3549112947629 298.39256349917537 600.1089493222603 301.9689358276554Q598.8629873497575 305.5453081561355 598.8629873497575 311.84433812823266L598.8629873497575 311.84433812823266Q598.8629873497575 321.3274931411701 602.2547727193482 325.0653790586783Q605.6696314588003 328.8032649761865 613.3069168828447 330.62606119521826L613.3069168828447 330.62606119521826L636.5648737028957 336.440550400231Q649.8551347429249 339.60160207121015 654.7697625233523 347.49269456372747Q659.6613169339186 355.3837870562448 659.6613169339186 368.6740480962739L659.6613169339186 368.6740480962739Q659.6613169339186 378.6417438762958 657.4232000573859 384.7792602593648Q655.1850831808532 390.939850012295 650.5242624688985 394.17012179285757Q645.8634417569439 397.4003935734203 638.5722568808168 398.646355545923Q631.2579986348285 399.8923175184257 621.2903028548067 399.8923175184257L621.2903028548067 399.8923175184257Q615.6373272388221 399.8923175184257 606.5925662532467 399.4077767513413Q597.5247318978102 398.90016261439575 585.7342398987564 396.7543392173077L585.7342398987564 396.7543392173077L586.7263948027864 385.956002122284Q596.5325769937801 386.2790293003403 602.508579787821 386.5328363688131Q608.4845825818619 386.7866434372859 612.8223761157603 386.7866434372859Q617.1370962797976 386.7866434372859 621.774843621891 386.7866434372859L621.774843621891 386.7866434372859Q630.5888709088549 386.7866434372859 635.6650122783104 385.4483879853385Q640.7180802779048 384.1101325333911 642.7946835654094 380.14151291727126Q644.871286852914 376.1498199312903 644.871286852914 368.3279475483565L644.871286852914 368.3279475483565Q644.871286852914 361.6828170283419 643.3715178119385 358.03722459027836Q641.8948221408241 354.3916321522148 638.6414769904003 352.4765424537384Q635.4112052098376 350.561452755262 630.4273573198267 349.4077842622039L630.4273573198267 349.4077842622039L606.6617863628301 343.4087080983019Q594.2021666378027 340.2707297971839 589.1490986382084 332.44885741425Q584.0729572687528 324.6500584011774 584.0729572687528 311.52131095017637L584.0729572687528 311.52131095017637Q584.0729572687528 301.55361517015456 586.3110741452856 295.485318896669Q588.5491910218182 289.41702262318347 593.1177182543282 286.34826443164894Q597.6862454868383 283.2795062401144 604.6774765547702 282.2873513360845Q611.6456342528411 281.2951964320546 621.2903028548067 281.2951964320546ZM680.5888633979922 317.01277297713284L694.7097657530231 317.01277297713284L694.7097657530231 373.819409575313Q694.5482521639951 381.4566949993575 697.5477902459461 384.61774667033666Q700.524254958036 387.7787983413158 707.5154860259679 387.7787983413158L707.5154860259679 387.7787983413158Q714.3221301350106 387.7787983413158 721.0364807646087 384.525453190892Q727.7739047640679 381.2951814103294 737.2339864071442 375.15766502726035L737.2339864071442 375.15766502726035L739.0798559960372 384.94077384839295Q729.5967009830997 392.4165456834093 720.7134535865524 396.2467250803621Q711.8302061900052 400.076904477315 702.6931517249851 400.076904477315L702.6931517249851 400.076904477315Q680.5888633979922 400.076904477315 680.5888633979922 377.811102561294L680.5888633979922 377.811102561294L680.5888633979922 317.01277297713284ZM735.7572907360299 317.01277297713284L749.8781930910608 317.01277297713284L749.8781930910608 397.90800771036584L738.5722418590916 397.90800771036584L737.2339864071442 382.63343686227677L735.7572907360299 380.14151291727126L735.7572907360299 317.01277297713284ZM822.1439874962193 315.0053897992118L822.1439874962193 315.0053897992118Q836.9109442073628 315.0053897992118 843.3945611383491 325.89602037368013Q849.8781780693356 336.76357757828725 849.8781780693356 357.87571100125024L849.8781780693356 357.87571100125024Q849.8781780693356 373.49638239725675 846.5556128093284 382.7026569718602Q843.2330475493211 391.9320049163249 836.4956235498619 395.9236979023059Q829.7812729202639 399.8923175184257 819.3059630032964 399.8923175184257L819.3059630032964 399.8923175184257Q811.3456504011956 399.8923175184257 803.6160714977065 397.74649412133766Q795.8864925942173 395.57759735438844 788.572234348229 391.1013636013231L788.572234348229 391.1013636013231L789.4028756632308 382.63343686227677Q797.2247480461647 384.7792602593648 803.2007508402056 386.18673582089565Q809.1767536342464 387.6172847522877 815.821884154261 387.6172847522877L815.821884154261 387.6172847522877Q822.9746288112211 387.6172847522877 827.1970554958137 385.1253608072822Q831.4425555502675 382.63343686227677 833.4268653583274 376.1498199312903Q835.4342485362484 369.6662030003039 835.4342485362484 357.87571100125024L835.4342485362484 357.87571100125024Q835.4342485362484 346.4082461802529 833.5883789473554 339.7631156602383Q831.7655827283237 333.11798514022377 827.8661832217874 330.21074053771736Q823.9667837152512 327.303495935211 817.4831667842647 327.303495935211L817.4831667842647 327.303495935211Q810.83803626425 327.303495935211 804.3544193332636 330.46454760619014Q797.8708024022773 333.6255992771693 789.2413620742027 340.08614283829456L789.2413620742027 340.08614283829456L787.9031066222553 330.62606119521826Q792.4024137451819 325.80372689423547 798.0553893611665 322.31964804520004Q803.68529160729 318.8355691961646 809.9151014698036 316.92047949768823Q816.1449113323173 315.0053897992118 822.1439874962193 315.0053897992118ZM775.7895874451455 317.01277297713284L787.418565855171 317.01277297713284L788.9183348961465 333.78711286619745L789.9104898001764 335.93293626328546L789.9104898001764 387.7787983413158L789.2413620742027 389.76310814937574Q789.7489762111483 394.4239288613304 789.8181963207318 398.73864902536764Q789.9104898001764 403.05336918940486 789.9104898001764 407.87570349038765L789.9104898001764 407.87570349038765L789.9104898001764 431.2951738994668L775.7895874451455 431.2951738994668L775.7895874451455 317.01277297713284ZM910.3534804754405 315.0053897992118L910.3534804754405 315.0053897992118Q919.3290213514323 315.0053897992118 925.5588312139461 317.4280936346338Q931.7886410764597 319.8277241001946 934.9266193775777 325.48069971617923Q938.0876710485568 331.1336753321638 938.0876710485568 340.91678415329636L938.0876710485568 340.91678415329636L938.0876710485568 397.90800771036584L926.9663067754769 397.90800771036584L924.7974100085277 380.30302650629943L923.8052551044977 378.48023028726766L923.8052551044977 340.91678415329636Q923.8052551044977 333.44101231828 920.3903963650458 330.21074053771736Q916.9986109954551 326.9804687571547 907.3539423934894 326.9804687571547L907.3539423934894 326.9804687571547Q901.0549124213923 326.9804687571547 891.5025372988713 327.62652311326724Q881.9501621763504 328.2956508392409 872.6285207524411 329.1262921542428L872.6285207524411 329.1262921542428L871.3133386703548 318.6740556071365Q876.9663142863395 317.65882733324537 883.6806649159377 316.82818601824357Q890.4180889153968 315.9975447032418 897.3862466134676 315.51300393615736Q904.3774776813997 315.0053897992118 910.3534804754405 315.0053897992118ZM890.0719883674793 348.06952881025654L931.4425405285423 348.06952881025654L931.2810269395142 358.7063523162521L892.5639123124848 358.8678659052802Q886.749423107472 359.02937949430833 884.4420861213558 361.9366240968147Q882.1116757653787 364.8438686993211 882.1116757653787 369.9892301783601L882.1116757653787 369.9892301783601L882.1116757653787 375.15766502726035Q882.1116757653787 381.4566949993575 885.0881404774684 384.3639396018639Q888.0876785594195 387.27118420437023 894.732809079434 387.27118420437023L894.732809079434 387.27118420437023Q899.3936297913887 387.27118420437023 905.2773391059849 385.5406814647831Q911.1841217904423 383.78710535533486 917.1601245844831 380.14151291727126Q923.1361273785241 376.47284710934656 928.119975268535 370.819871493362L928.119975268535 370.819871493362L928.119975268535 381.2951814103294Q926.2971790495033 383.6255917663067 922.8823203100513 386.6943499578412Q919.4905349404606 389.76310814937574 914.7604941189223 392.6703527518821Q910.0073799275231 395.57759735438844 904.2851842019551 397.4926870528649Q898.5629884763867 399.4077767513413 891.9178579563724 399.4077767513413L891.9178579563724 399.4077767513413Q884.7651132994121 399.4077767513413 879.2736512724557 396.8235593268912Q873.8052626153603 394.26241527230223 870.7365044238257 389.18627390284666Q867.6446728624302 384.1101325333911 867.6446728624302 376.818947657264L867.6446728624302 376.818947657264L867.6446728624302 368.0049203703002Q867.6446728624302 358.5448387272239 873.5514555468875 353.30718376874023Q879.458238231345 348.06952881025654 890.0719883674793 348.06952881025654L890.0719883674793 348.06952881025654ZM1027.12780534278 283.2795062401144L1043.094577286704 283.2795062401144L1009.6843377277415 330.78757478424643Q1008.2076420566273 332.9564715511956 1006.7770931252352 334.5254607017546Q1005.3696175637044 336.1175232221748 1003.3853077556445 338.1018330302347L1003.3853077556445 338.1018330302347L1003.3853077556445 338.4248602082909Q1005.5311311527325 340.432243386212 1007.3770007416255 342.4165531942719Q1009.1997969606572 344.423936372193 1010.5149790427434 346.4082461802529L1010.5149790427434 346.4082461802529L1045.4019142728198 397.90800771036584L1028.973674931673 397.90800771036584L988.2722504965835 337.94031944120655L1027.12780534278 283.2795062401144ZM964.8297067176433 283.2795062401144L979.2967096205917 283.2795062401144L979.2967096205917 319.1585963742209Q979.2967096205917 324.1424442642318 978.7890954836461 328.64175138715837Q978.3045547165617 333.11798514022377 977.2893264426706 337.94031944120655L977.2893264426706 337.94031944120655Q978.1199677576725 342.5780667833 978.7198753740626 347.2388874952547Q979.2967096205917 351.89970820720936 979.2967096205917 356.2144283712466L979.2967096205917 356.2144283712466L979.2967096205917 397.90800771036584L964.8297067176433 397.90800771036584L964.8297067176433 283.2795062401144ZM974.1513481415526 332.2873438252219L996.2325630986844 332.2873438252219L996.2325630986844 344.07783582427555L974.1513481415526 344.07783582427555L974.1513481415526 332.2873438252219ZM1062.1993275317457 317.01277297713284L1076.1356429278871 317.01277297713284L1076.1356429278871 397.90800771036584L1062.1993275317457 397.90800771036584L1062.1993275317457 317.01277297713284ZM1065.8449199698093 282.61037851414073L1072.4900504898237 282.61037851414073Q1076.804770653861 282.61037851414073 1076.804770653861 286.92509867817796L1076.804770653861 286.92509867817796L1076.804770653861 296.4082536911154Q1076.804770653861 300.7229738551527 1072.4900504898237 300.7229738551527L1072.4900504898237 300.7229738551527L1065.8449199698093 300.7229738551527Q1061.530199805772 300.7229738551527 1061.530199805772 296.4082536911154L1061.530199805772 296.4082536911154L1061.530199805772 286.92509867817796Q1061.530199805772 282.61037851414073 1065.8449199698093 282.61037851414073L1065.8449199698093 282.61037851414073ZM1129.6427876359212 315.0053897992118L1129.6427876359212 315.0053897992118Q1137.6031002380223 315.0053897992118 1145.424972620956 317.08199308671635Q1153.2237716340287 319.1585963742209 1160.3765162909888 323.47331653825813L1160.3765162909888 323.47331653825813L1159.5458749759869 332.2873438252219Q1151.7240025930532 329.9569334692446 1145.7479997990122 328.64175138715837Q1139.7719970049714 327.303495935211 1132.9653528959286 327.303495935211L1132.9653528959286 327.303495935211Q1125.9741218279967 327.303495935211 1121.751695143404 329.7031264007718Q1117.5061950889503 332.1258302361938 1115.5218852808903 338.60944716718024Q1113.5145021029693 345.06999072830547 1113.5145021029693 357.04506968624844L1113.5145021029693 357.04506968624844Q1113.5145021029693 368.9970752743302 1115.429591801446 375.64220579434476Q1117.344681499922 382.2873363143593 1121.4978880749313 384.94077384839295Q1125.6510946499402 387.6172847522877 1132.1347115809267 387.6172847522877L1132.1347115809267 387.6172847522877Q1136.9570458819096 387.6172847522877 1140.856445388446 386.3713227797849Q1144.7558448949821 385.1253608072822 1149.1628585384642 382.2873363143593Q1153.569872181946 379.4723851912976 1159.5458749759869 375.15766502726035L1159.5458749759869 375.15766502726035L1160.8610570580731 385.1253608072822Q1154.2159265380585 391.2628771903512 1145.7479997990122 395.57759735438844Q1137.2800730599658 399.8923175184257 1127.4738908689721 399.8923175184257L1127.4738908689721 399.8923175184257Q1112.199320020883 399.8923175184257 1105.6234096104522 389.09398042340206Q1099.0705725698822 378.29564332837833 1099.0705725698822 357.20658327527656L1099.0705725698822 357.20658327527656Q1099.0705725698822 341.4243982902419 1102.3931378298894 332.19505034577725Q1105.7157030898966 322.9887757711738 1112.5223471989393 318.9970827851928Q1119.328991307982 315.0053897992118 1129.6427876359212 315.0053897992118ZM1157.7230787569551 281.6182236101108L1171.843981111986 281.6182236101108L1171.843981111986 397.90800771036584L1160.8610570580731 397.90800771036584L1159.1997744280693 383.78710535533486L1157.7230787569551 382.63343686227677L1157.7230787569551 327.14198234618283L1158.7152336609852 324.6500584011774Q1158.0461059350114 319.9892376892227 1157.8845923459833 315.6745175251855Q1157.7230787569551 311.35979736114825 1157.7230787569551 306.53746306016546L1157.7230787569551 306.53746306016546L1157.7230787569551 281.6182236101108Z " fill="#3b82f6" transform="matrix(0.7466863968176382,0,0,0.7466863968176382,0,33.95923164850922)"/></g></svg>